<?xml version="1.0" encoding="UTF-8" standalone="no"?>
<!-- Created with Inkscape (http://www.inkscape.org/) -->

<svg width="210mm" height="297mm" viewBox="0 0 210 297" version="1.1" id="svg1" xml:space="preserve"
  inkscape:version="1.3.2 (091e20e, 2023-11-25)" sodipodi:docname="TailorMadeLoginBackground.svg"
  xmlns:inkscape="http://www.inkscape.org/namespaces/inkscape"
  xmlns:sodipodi="http://sodipodi.sourceforge.net/DTD/sodipodi-0.dtd" xmlns="http://www.w3.org/2000/svg"
  xmlns:svg="http://www.w3.org/2000/svg">
  <sodipodi:namedview id="namedview1" pagecolor="#1e1e1e" bordercolor="#000000" borderopacity="0.25"
    inkscape:showpageshadow="2" inkscape:pageopacity="0.0" inkscape:pagecheckerboard="0" inkscape:deskcolor="#d1d1d1"
    inkscape:document-units="mm" inkscape:zoom="0.52948924" inkscape:cx="282.34757" inkscape:cy="576.97112"
    inkscape:window-width="1472" inkscape:window-height="890" inkscape:window-x="0" inkscape:window-y="38"
    inkscape:window-maximized="1" inkscape:current-layer="layer3" />
  <defs id="defs1" />
  <g inkscape:groupmode="layer" id="layer3" inkscape:label="Layer 2" style="display:inline">
    <path style="fill:#ffff00;stroke-width:0.264583"
      d="m 82.947686,120.88683 v 3.06341 l 3.299055,0.11782 1.178235,0.47129 27.570674,0.58912 1.17824,-0.35347 1.88517,0.58912 4.12382,0.11782 c 0,0 2.59212,13.78534 26.6281,24.50727 0,0 2.003,-1.17823 -0.23565,-3.65252 0,0 -17.08439,-5.89117 -23.44686,-22.03298 0,0 2.003,-0.70694 1.41388,-3.29906 0,0 -13.78534,-2.12082 -43.594664,-0.11782 z"
      id="path285" />
    <path style="fill:#ffff00;stroke-width:0.264583"
      d="m 84.715037,121.12247 c 0,0.1571 0,0.3142 0,0.4713 0,0.51057 0,1.02113 0,1.5317 0,0.0775 0,0.65357 0,0.35347"
      id="path286" />
    <path style="fill:#ffff00;stroke-width:0.264583"
      d="m 86.011096,121.35812 c 0,0.1571 0,0.3142 0,0.47129 0,0.25473 -0.06141,0.57913 0,0.82477 0.135387,0.54155 0.117821,0.0267 0.117821,0.35347 0,0.11782 -0.117821,0.35347 0,0.35347 0.03928,0 0,-0.0785 0,-0.11782"
      id="path287" />
    <path style="fill:#ffff00;stroke-width:0.264583"
      d="m 88.014092,123.47894 c 0,-0.74621 0,-1.49243 0,-2.23864 0.402039,-0.58859 1.934882,1.0107 1.531707,1.41388 -0.02777,0.0278 -0.09005,-0.0278 -0.117824,0 -0.07239,0.0724 -0.07784,0.27457 -0.235647,0.35347 -0.07279,0.0364 -0.42762,0.0742 -0.471293,0.11782 -0.02777,0.0278 0.02777,0.0901 0,0.11783 -0.05554,0.0555 -0.162716,-0.0292 -0.235647,0 -0.163079,0.0652 -0.314197,0.15709 -0.471296,0.23564 z"
      id="path288" />
    <path style="fill:#d35f5f;fill-opacity:0.819608;stroke-width:0.264583"
      d="m 82.839175,67.960295 c 0,0 11.12565,8.310726 21.447035,7.104329 0,0 15.95124,-0.134042 22.38535,-6.836241 0,0 7.37242,2.01066 9.65116,4.69154 0,0 -4.42346,2.546833 -6.30006,9.249034 -0.5029,1.796067 -0.88472,0.974369 -0.83459,0.117384 0.0501,-0.856985 0.53224,-1.749258 0.4939,-2.161547 -0.0767,-0.82458 0.034,-1.254145 -0.43515,-2.192453 0,0 -1.34585,1.191494 -1.61393,1.995758 0,0 -0.5592,1.30255 -1.09538,1.704682 0,0 -2.41279,2.278748 -2.01066,2.814923 0,0 -0.42378,1.366222 0.64857,2.706662 0,0 -1.06716,3.378361 -1.49171,4.372125 1.0045,0.972111 1.36726,1.544965 1.58614,1.651011 l 1.22617,-2.958507 c 0.45494,-1.09767 1.42837,8.592063 3.25855,9.375679 0,0 -9.11499,14.878876 -7.37242,20.508726 H 87.262628 c 0,0 1.206396,-8.04264 -7.640507,-21.044902 0,0 4.825583,-13.538442 -5.763891,-26.138575"
      id="path290" sodipodi:nodetypes="ccccssscccccccsccccc" />
    <path style="fill:#d35f5f;fill-opacity:0.819608;stroke-width:0.264583"
      d="m 87.263032,124.77083 34.445938,0.61237 c 0,0 2.75567,4.4397 2.90877,8.7263 0,0 8.26702,11.78817 9.49177,26.17892 0,0 1.83711,11.48197 0,28.01602 l -0.45928,7.19538 -3.98042,18.52425 c 0,0 -7.66472,4.59783 -25.57661,5.36329 l 0.46935,-67.97834 -26.944378,-0.45928 c 0,0 4.745881,-18.67735 9.64486,-26.17891 z"
      id="path291" sodipodi:nodetypes="ccccccccccc" />
    <path style="fill:#e9c6af;fill-opacity:0.819608;stroke-width:0.264583"
      d="m 77.676035,151.1739 c 0,0 -3.418506,10.44543 -1.32942,34.7548 0,0 2.468923,4.55801 27.917795,6.45718 l 0.18992,-41.21198"
      id="path292" />
    <path style="fill:#ac9393;fill-opacity:0.819608;stroke-width:0.407969"
      d="m 98.682218,191.43644 c -0.118877,-0.19234 -1.736092,-0.46209 -3.593811,-0.59943 -3.129473,-0.23135 -7.857397,-0.84961 -9.293228,-1.21524 -0.336573,-0.0857 -1.162711,-0.29335 -1.835861,-0.46143 -2.540331,-0.6343 -6.692421,-2.34308 -7.211653,-2.96794 -0.882121,-1.06156 -0.983141,-22.46427 -0.131799,-27.9235 0.361942,-2.32095 0.757293,-4.86246 0.878559,-5.6478 l 0.220483,-1.42789 7.485861,0.11925 c 7.018036,0.1118 7.501707,0.16917 7.739354,0.91793 0.329784,1.03906 1.032155,1.02307 1.307478,-0.0298 0.204311,-0.78129 0.486603,-0.82193 4.959429,-0.71395 l 4.74279,0.1145 -0.0547,1.4279 c -0.0301,0.78534 -0.076,1.7364 -0.10199,2.11346 -0.026,0.37707 -0.42177,0.74424 -0.87942,0.81594 -0.45766,0.0717 -0.8321,0.31395 -0.8321,0.53834 0,0.22438 0.37444,0.46663 0.8321,0.53833 0.45765,0.0717 0.84897,0.25529 0.86959,0.40797 0.0601,0.44498 0.72491,2.26902 0.67431,18.73822 l 0.0626,15.71547 -3.19819,-0.11064 c -1.332263,-0.0461 -2.521005,-0.15737 -2.639879,-0.34972 z m 0.883971,-35.04162 c 0.109529,-0.33258 -0.261229,-0.50997 -1.065882,-0.50997 -1.306312,0 -2.045052,0.59998 -1.182534,0.96042 0.830895,0.34722 2.067295,0.0995 2.248416,-0.45045 z m -4.387713,-0.50997 c 0,-0.59309 -0.271978,-0.81594 -0.995846,-0.81594 -0.547714,0 -1.109308,0.18359 -1.247984,0.40797 -0.405511,0.65613 0.173437,1.22391 1.247984,1.22391 0.723868,0 0.995846,-0.22284 0.995846,-0.81594 z m -4.283678,-0.20398 c 0,-0.22439 -0.688448,-0.46495 -1.529887,-0.53459 -1.43469,-0.11874 -1.908937,0.22353 -1.23857,0.8939 0.424863,0.42486 2.768457,0.12069 2.768457,-0.35931 z m -4.283678,-0.21408 c 0,-0.70811 -2.061771,-1.29553 -2.696935,-0.76839 -0.306811,0.25463 -0.457232,0.62575 -0.334269,0.82471 0.312314,0.50533 3.031204,0.45481 3.031204,-0.0563 z m -4.582242,-0.8856 c -0.211474,-0.63441 -2.110637,-1.13826 -2.76533,-0.73364 -0.862454,0.53303 -0.02267,1.22136 1.490089,1.22136 0.933958,0 1.380842,-0.17091 1.275241,-0.48772 z"
      id="path293" sodipodi:nodetypes="csssssscsssscssssssccsccssssssssssssssssssssss" />
    <path style="fill:#c88c5b;fill-opacity:0.90980399;stroke-width:0.264583"
      d="m 99.240143,191.89355 -0.219559,7.68452 2.854256,0.65868 0.65867,47.86361 c 0,0 -8.562756,9.66054 -1.5369,17.12551 0,0 -7.904086,3.73248 -0.65868,8.12364 0,0 -1.75646,9.66055 -23.712244,8.12364 0,0 -6.147619,3.73248 -0.219558,5.04983 l 57.085042,0.21956 c 0,0 6.14762,-2.19558 -1.31735,-5.92806 0,0 -18.44286,4.39115 -21.95578,-7.68453 0,0 7.68452,-2.85425 -1.09779,-8.12364 0,0 7.90408,-6.36717 -2.19558,-17.78418 l 0.43911,-28.54252 -3.07381,0.21956 v -27.00562 z"
      id="path294" />
    <path style="fill:#ffb000;fill-opacity:0.819608;stroke-width:0.376975"
      d="m 555.47238,563.43351 c -34.55282,-16.3085 -62.05444,-37.39336 -78.97602,-60.54911 -5.91088,-8.08855 -10.55894,-16.70434 -13.22492,-24.51414 -0.77652,-2.27477 -1.47529,-4.21293 -1.55282,-4.30702 -0.0775,-0.0941 -3.73949,-0.28271 -8.13768,-0.41915 -7.20388,-0.22347 -8.32251,-0.34856 -11.28276,-1.26158 l -3.28604,-1.01352 -2.36858,0.69906 c -2.29897,0.67852 -3.22161,0.68039 -31.39564,0.0635 -15.96488,-0.34953 -39.2902,-0.84668 -51.83404,-1.10476 -22.46224,-0.46216 -22.84011,-0.48253 -24.99917,-1.34754 -1.8446,-0.73903 -3.17454,-0.91978 -8.38769,-1.13994 l -6.19549,-0.26165 v -5.55962 -5.55961 l 2.54458,-0.22973 c 7.43591,-0.6713 33.35727,-1.95399 50.89199,-2.51834 15.65742,-0.50392 69.20487,-0.24747 79.44705,0.3805 13.68646,0.83914 30.94249,2.38443 31.367,2.80894 0.0736,0.0736 0.23363,0.97668 0.35564,2.00685 0.43378,3.66262 -1.58714,7.89953 -4.48195,9.39649 -1.39103,0.71933 -1.3352,0.98175 1.55206,7.29589 6.4729,14.15559 15.35144,26.65414 27.73671,39.04569 10.47702,10.48233 22.24327,19.44415 35.64088,27.14602 5.58352,3.2098 14.62241,7.64818 19.55376,9.60153 3.36222,1.33179 4.56059,2.4738 6.11819,5.8304 1.27648,2.75079 0.73313,6.14909 -1.28407,8.03097 l -0.82696,0.77148 z"
      id="path295" transform="scale(0.26458333)" />
    <path style="fill:#ffccaa;fill-opacity:0.819608;stroke-width:0.264583"
      d="m 135.36634,105.57884 c -5.52047,-4.02533 -5.75048,-6.210518 -5.75048,-6.210518 -0.92008,0.575048 -2.41485,-6.653616 -2.41485,-6.653616 0,-1.610134 -1.95552,-5.537407 -1.95552,-5.537407 -2.77798,-2.982094 2.08297,-6.501963 2.08297,-6.501963 l 0.44724,3.051676 0.94919,-1.757457 c 0,0 0.25877,0.08626 0.51755,0.244396 0.25877,0.158138 0.49163,0.932334 0.49163,1.219858 0,0.575048 -1.38332,2.363377 1.95196,9.493974 0,0 4.94541,5.175433 8.28069,5.635472 0,0 0.23003,4.715395 -4.60038,7.015585 z"
      id="path296" sodipodi:nodetypes="cccccccssccc" />
    <path style="fill:#ffccaa;fill-opacity:0.819608;stroke-width:0.264583"
      d="m 145.25717,98.908284 c 1.95516,-1.495126 -0.46005,-3.450291 -0.46005,-3.450291 -1.70137,-3.118681 -0.23001,-7.820655 -0.23001,-7.820655 0,0 0.23002,-1.495124 4.14034,2.645223 0,0 1.72515,-0.460038 2.76024,0.460039 0,0 1.61013,1.840154 -1.38012,2.645221 0,0 -0.11501,1.840154 0.92008,2.185183 0,0 -0.69006,0.805068 0.23002,2.760231 l 1.15009,0.575049 c 0,0 -0.34502,2.760236 -7.13059,0 z"
      id="path297" sodipodi:nodetypes="cccccccccc" />
    <path style="fill:#d58000;fill-opacity:0.781003;stroke-width:0.264583"
      d="m 166.99399,91.317648 c -0.46004,2.185183 -3.22027,1.840154 -3.22027,1.840154 -4.25536,-1.150096 -0.57505,-7.015588 -0.57505,-7.015588 0.34503,-4.485375 -3.33528,-4.945414 -3.33528,-4.945414 -4.25536,-0.575048 -3.79532,3.450289 -3.79532,3.450289 l -1.26511,-1.035086 c -2.99025,-1.380116 -7.01558,0 -7.01558,0 -0.23002,-2.645222 -3.33528,-1.495127 -3.33528,-1.495127 -3.33528,2.990249 0.12594,5.453268 0.12594,5.453268 0,0 0.51408,-1.195009 4.00959,2.707608 0,0 3.36938,-0.573952 3.18484,1.614944 0,0 0.0923,1.285002 -1.77274,1.320425 0,0 -0.3916,2.984925 2.61804,2.704912 0,0 2.53021,0.11501 3.91033,-2.760231 0,0 0,5.865491 4.8304,5.405453 0,0 6.55556,0.920077 5.63548,-7.245607 z"
      id="path299" sodipodi:nodetypes="ccccccccccccccccc" />
    <path style="fill:#008080;fill-opacity:0.819608;stroke-width:0.264583"
      d="m 152.38424,98.893864 c -0.97432,2.825536 -7.30743,-2e-6 -7.30743,-2e-6 -0.0974,0.194865 -2.24095,0.09743 -3.21527,-0.584595 -0.97432,-0.682024 -2.24094,0.194866 -2.24094,0.194866 0,0 1.00869,4.415187 -4.36102,7.140717 0,0 -0.24407,0.44748 0,0.85428 0,0 3.33573,3.86455 5.85786,4.10863 0,0 6.14262,3.25437 6.42738,11.10553 l 0.0982,4.32344 c 0,0 15.69832,1.23786 16.26099,-1.68799 0,0 0.39387,-8.15863 -0.67519,-9.56529 0,0 -1.03939,-14.842988 -10.84458,-15.889586 z"
      id="path300" />
    <path style="fill:#005153;fill-opacity:0.94986802;stroke-width:0.264583"
      d="m 158.47399,102.15808 c 0,0 4.77419,8.57405 4.38446,11.78932 -0.38973,3.21526 4.67675,-3.70243 3.11784,-5.55365 -1.55892,-1.85122 -1.75379,-3.50756 -7.5023,-6.23567 z"
      id="path301" />
    <path style="fill:#e3dbdb;fill-opacity:0.819608;stroke-width:0.264583"
      d="m 140.93217,110.7467 -8.79577,-0.19991 4.39789,3.19846 -4.39789,4.19798 12.19413,10.1951 2.99856,-2.99856 c 0,0 1.99904,-10.19509 -6.39692,-14.39307 z"
      id="path310" />
    <path style="fill:#ffd5d5;fill-opacity:0.949868;stroke-width:0.264583"
      d="m 127.65495,79.623794 1.30586,-1.644492 0.60712,0.0014 0.25257,2.209978 c 0,0 -0.46071,0.695961 -2.16555,-0.566885 z"
      id="path311" sodipodi:nodetypes="ccccc" />
    <path style="fill:#501616;fill-opacity:0.949868;stroke-width:0.264583"
      d="m 128.60808,78.400515 1.03938,0.1358 -0.0686,-0.557991 -0.5849,-0.05647 z" id="path312"
      sodipodi:nodetypes="ccccc" />
    <path style="fill:#501616;fill-opacity:0.949868;stroke-width:0.264583"
      d="m 127.66194,79.615066 -0.81435,2.490965 0.86226,1.652659 0.76645,-1.293387 0.55088,0.28742 0.76645,-2.562821 c 0,0 -1.05387,0.407178 -2.13169,-0.574836 z"
      id="path313" />
    <path style="fill:#c88c5c;fill-opacity:0.96862745;stroke-width:1.04903"
      d="m 379.55923,285.58115 c -13.44635,-3.688 -20.47183,-4.87326 -33.56154,-9.71132 -7.71724,-2.75234 -27.93308,-13.90824 -28.75353,-15.9737 -0.32617,-0.82112 3.15666,-1.31129 4.67544,-1.31129 2.95629,0 12.35295,-3.16364 18.09018,-6.09056 9.75172,-4.97496 21.70027,-17.18827 23.05343,-23.56427 0.27319,-1.28725 0.46832,-9.89763 0.43362,-19.13419 l -0.0631,-16.79374 5.79649,-5.72448 c 3.18806,-3.14846 5.79648,-6.14942 5.79648,-6.66879 0,-0.51938 -1.72041,-3.28799 -3.82313,-6.15247 -11.48946,-15.65177 -11.84536,-33.85283 -0.91511,-46.79914 1.61177,-1.90905 5.3435,-4.85501 8.29273,-6.54656 5.07753,-2.91226 6.00573,-3.07608 17.48231,-3.0854 10.95441,-0.009 12.64544,0.25195 17.58243,2.71216 10.13321,5.04959 16.95969,16.37278 17.8124,29.54577 0.60855,9.40087 -1.27141,14.91687 -7.827,22.96538 l -4.62769,5.68155 5.45012,6.26614 5.45012,6.26614 -0.66346,16.0788 -0.66345,16.0788 4.72639,7.66599 c 7.4697,12.11547 16.58756,19.08968 30.89053,23.62801 3.1733,1.00688 15.85378,2.64408 16.32553,3.07376 0.91027,0.82909 -16.74052,11.07651 -25.49303,15.49128 -8.54903,4.31214 -26.20455,8.06785 -36.86424,9.79447 -9.0683,1.46884 -31.6045,3.41434 -38.60292,2.30766 z"
      id="path317" transform="scale(0.26458333)" sodipodi:nodetypes="ssssssscssssscssscccccssssss" />
    <path style="fill:#d39367;fill-opacity:0.90980399;stroke-width:0.277556"
      d="m 78.819943,94.274375 c -0.808108,-3.354581 -2.715342,-7.602908 -5.602202,-12.003193 -0.97209,-1.481704 -1.825385,-2.512092 -1.724451,-2.633266 0.10093,-0.121174 0.679675,-1.408679 1.114332,-2.517608 0.43466,-1.108927 1.360083,-3.825584 1.541222,-3.975918 0.234876,-0.194929 1.522709,1.991305 2.393394,3.0797 2.509475,3.13695 3.498424,8.644006 4.163732,12.464494 0.342059,1.964246 -0.510902,9.296157 -0.926957,10.353283 -0.224621,0.570727 -0.643191,-3.456238 -0.95907,-4.767492 z"
      id="path318" sodipodi:nodetypes="sssssssss" />
    <path style="fill:#c88c5b;fill-opacity:0.97000003;stroke-width:0.277556"
      d="m 129.9939,89.009906 c -0.38631,-0.856673 -0.57319,-1.353781 -0.57319,-3.089728 0,-2.258846 0.14905,-3.697019 1.39224,-6.268465 0.79553,-1.645483 1.27074,-2.556473 1.9029,-3.549425 0.83304,-1.308463 3.04809,-3.087161 3.48448,-3.026815 0.4364,0.06035 0.37812,2.120236 1.07822,3.5135 l 1.2176,2.423139 -3.63998,5.486175 c -2.00199,3.017398 -4.07708,5.897224 -4.16839,5.901309 -0.0913,0.0041 -0.40355,-0.745853 -0.69388,-1.38969 z"
      id="path319" sodipodi:nodetypes="sssssscsss" />
    <path style="fill:#004742;fill-opacity:0.81960797;stroke-width:0.264583"
      d="m 147.45665,125.72939 c 0,0 15.11791,1.51939 16.33342,-1.13954 0,0 3.72251,11.09153 -4.02637,21.95516 0,0 5.01398,5.69771 3.19071,15.87762 0,0 -1.51939,1.06357 -4.40623,0.30387 l -1.59535,-7.74887 c 0,0 -4.86205,-4.63414 -6.91322,-9.19231 0,0 -1.36745,-7.2171 -1.51939,-8.58454"
      id="path321" sodipodi:nodetypes="cccccccc" />
    <path style="fill:#001c1a;fill-opacity:0.819608;stroke-width:0.264583"
      d="m 150.1198,145.96126 c 0,0 0.0441,10.5369 -3.50306,16.02659 0,0 2.70261,1.77359 5.15185,1.60468 0,0 3.63164,-3.96947 5.23632,-8.7835"
      id="path322" sodipodi:nodetypes="cccc" />
    <path style="fill:#00625c;fill-opacity:0.819608;stroke-width:0.264583"
      d="m 162.73223,162.37898 c 2.47278,-9.77335 -4.71005,-16.48517 -4.71005,-16.48517 2.82603,-4.71005 3.53255,-13.89466 3.53255,-13.89466 -0.82426,-6.35857 -7.53609,-3.53253 -7.53609,-3.53253 -5.41656,0.7065 -3.41478,14.01239 -3.41478,14.01239 0,0 1.76626,6.47633 6.94732,12.12839 l 1.17751,7.77158 c 0,0 1.76626,0.82426 4.00354,0 z"
      id="path323" sodipodi:nodetypes="ccccc" />
    <path style="fill:#00625c;fill-opacity:0.819608;stroke-width:0.264583"
      d="m 150.83981,150.17406 c 0,0 -1.14128,7.41835 -3.80428,11.60306 0,0 0.66575,1.61683 4.66025,1.61683 0,0 3.23364,-3.61407 4.94556,-8.17921"
      id="path324" />
    <path style="fill:#521918;fill-opacity:0.976471;stroke-width:0.264583" d="m 125.1012,87.126457 -1.44761,4.342858"
      id="path332" />
    <path style="fill:#521918;fill-opacity:0.976471;stroke-width:0.264583"
      d="m 125.03387,87.059126 -1.56532,4.595188 1.83465,1.666605 1.24562,-3.231893 c 0,0 -0.43765,-1.952601 -1.51495,-3.0299 z"
      id="path333" sodipodi:nodetypes="ccccc" />
    <path style="fill:#521918;fill-opacity:0.976471;stroke-width:0.264583"
      d="m 134.82299,169.46654 41.26333,-1e-5 c 1.76528,0.22066 0.61151,-1.23222 0.61151,-1.23222 l -42.09551,0.12893 c 0,0 -0.47796,0.96937 0.22067,1.1033 z"
      id="path334" sodipodi:nodetypes="ccccc" />
    <path style="fill:#521918;fill-opacity:0.976471;stroke-width:0.264583"
      d="m 139.56869,169.2341 -24.01485,110.18582 2.44857,1.13009 24.76826,-111.22173 z" id="path335" />
    <path style="fill:#482713;fill-opacity:1;stroke-width:0.682891"
      d="m 440.97686,1057.6129 c -1.97185,-0.9924 -3.58518,-2.0223 -3.58518,-2.2887 0,-0.2663 2.90431,-13.8008 6.45401,-30.0767 23.80621,-109.15461 83.16695,-381.61068 83.4733,-383.12871 0.34511,-1.71011 0.65878,-1.86397 4.22018,-2.07007 2.11606,-0.12246 -2.05929,-0.0879 -9.27854,0.0768 -11.96077,0.27284 -13.16601,0.1949 -13.57777,-0.87812 -0.24852,-0.64765 -0.18058,-1.44561 0.15098,-1.77326 0.33156,-0.32764 36.13643,-0.81594 79.56636,-1.0851 l 78.96352,-0.48938 0.79559,1.48656 c 0.43757,0.81761 0.60958,1.78751 0.38225,2.15534 -0.26501,0.4288 -23.53892,0.66878 -64.8602,0.66878 -60.79375,0 -64.46607,0.0677 -64.78544,1.19506 -0.18621,0.65728 -15.61422,69.87682 -34.28446,153.8212 -18.67024,83.94437 -39.51822,177.64766 -46.32884,208.2295 -6.81062,30.5819 -12.68392,55.6839 -13.05177,55.7824 -0.36784,0.098 -2.28214,-0.6331 -4.25399,-1.6256 z"
      id="path336" transform="scale(0.26458333)" />
    <path style="fill:#482713;fill-opacity:1;stroke-width:0.264583"
      d="m 167.10919,169.2046 27.03083,117.23837 h 2.8288 L 170.9857,169.2046 Z" id="path337" />
    <path style="fill:#482713;fill-opacity:1;stroke-width:0.264583"
      d="m 130.62943,222.0575 -0.43835,1.50293 49.90971,0.18787 -0.5636,-1.87866 z" id="path338" />
    <path style="fill:#aa4400;fill-opacity:0.976471;stroke-width:0.264583"
      d="m 152.00397,164.3361 c 2.87917,1.14038 0,3.74121 0,3.74121 l -8.72949,-0.13856 c -2.49414,-2.49414 0.69202,-3.14555 0.69202,-3.14555 0,0 5.73525,1.47983 8.03747,-0.4571 z"
      id="path339" sodipodi:nodetypes="ccccc" />
    <path style="fill:#aa4400;fill-opacity:0.976471;stroke-width:0.264583"
      d="m 157.32756,165.63636 c 0,0 -3.02138,0.53953 -0.64743,2.15813 l 8.63251,0.21581 c 0,0 3.02138,-2.69766 -0.21581,-3.56091 0,0 -5.61115,2.48185 -7.76927,1.18697 z"
      id="path340" />
    <path style="fill:#fdccad;fill-opacity:0.909804;stroke-width:0.264583"
      d="m 147.80204,162.67832 -0.38476,1.20303 -3.08852,1.0267 c 0,0 6.42927,1.27938 7.55433,-0.48857 l -0.24108,-1.0447 c 0,0 -0.62551,1.23221 -3.83997,-0.69646 z"
      id="path341" sodipodi:nodetypes="cccccc" />
    <path style="fill:#fdccad;fill-opacity:0.909804;stroke-width:0.264583"
      d="m 157.40399,165.62068 2.57391,-0.89096 -0.34649,-1.88094 c 0,0 1.97992,0.198 3.21738,-0.29698 l 1.93042,2.12842 c 0,0 -3.86086,2.17791 -7.37522,0.94046 z"
      id="path342" sodipodi:nodetypes="cccccc" />
    <path style="fill:#482713;fill-opacity:1;stroke-width:0.763726"
      d="m 734.25993,1082.3902 c -1.45305,-4.4555 -54.43906,-236.30937 -54.0648,-236.57439 0.30461,-0.2157 -0.12458,-2.27776 -0.95375,-4.58235 -0.82917,-2.3046 -11.73321,-48.3526 -24.2312,-102.32891 l -22.72362,-98.13874 6.81907,-0.22088 c 3.75049,-0.12149 6.87992,-0.12149 6.95428,0 0.11641,0.19019 81.49024,367.34627 93.61108,422.37027 l 4.33207,19.6659 h -4.84043 c -2.66224,0 -4.86845,-0.086 -4.9027,-0.1909 z"
      id="path343" transform="scale(0.26458333)" />
    <path style="fill:#482713;fill-opacity:1;stroke-width:0.163701"
      d="m 618.1334,845.32776 c -0.63024,-0.0214 -28.80721,-0.12576 -62.61547,-0.23198 -33.80826,-0.10621 -61.48431,-0.20547 -61.50232,-0.22056 -0.018,-0.0151 0.23981,-1.24046 0.57295,-2.72304 l 0.60571,-2.69559 9.16723,-0.10527 c 5.04198,-0.0579 35.46573,-0.18667 67.60834,-0.28616 32.14261,-0.0995 61.40614,-0.22438 65.03006,-0.27752 l 6.58895,-0.0966 v 3.37033 3.37033 l -12.15477,-0.0325 c -6.68513,-0.0179 -12.67043,-0.05 -13.30068,-0.0714 z"
      id="path344" transform="scale(0.26458333)" />
    <path style="fill:#ff6600;fill-opacity:0.909804;stroke-width:0.126429"
      d="m 509.48178,636.90785 -0.0194,-0.48617 19.93676,-0.0825 c 10.96523,-0.0454 33.84717,-0.10207 50.84877,-0.12595 17.0016,-0.0239 29.17676,-0.027 27.0559,-0.007 -2.12085,0.0201 -13.18659,0.0974 -24.59053,0.1718 -35.75666,0.23318 -72.17684,0.71137 -73.01774,0.9587 -0.14904,0.0438 -0.19891,-0.0562 -0.21378,-0.429 z"
      id="path345" transform="scale(0.26458333)" />
    <path style="fill:#492713;fill-opacity:0.99607801;stroke-width:0.606931"
      d="m 441.0547,1057.2199 c -1.7346,-0.8644 -3.15382,-1.8991 -3.15382,-2.2993 0,-1.5511 89.62219,-412.87727 90.14415,-413.72183 0.19814,-0.32057 1.16348,-0.58286 2.14521,-0.58286 0.98174,0 1.78518,-0.20484 1.78542,-0.4552 2.4e-4,-0.25036 -5.11595,-0.4552 -11.36931,-0.4552 -9.91625,0 -11.39385,-0.12356 -11.55823,-0.9665 -0.16666,-0.85469 1.55233,-1.01238 14.85917,-1.36312 8.2762,-0.21814 43.89714,-0.57771 79.15763,-0.79904 l 64.10999,-0.40241 0.72909,1.36232 c 0.401,0.74927 0.63868,1.45148 0.52818,1.56047 -0.55809,0.55043 -35.79003,1.04787 -79.8099,1.12684 -27.09434,0.0486 -49.40872,0.23459 -49.58751,0.4133 -0.44373,0.44352 -44.12263,196.38006 -44.38045,199.08359 -0.11308,1.18573 -0.6342,3.50724 -1.15805,5.15892 -0.52384,1.65167 -9.44147,41.23971 -19.81696,87.97341 -16.78407,75.59961 -26.08101,116.75981 -27.93177,123.66221 -0.33565,1.2518 -0.81924,2.276 -1.07465,2.276 -0.2554,0 -1.88359,-0.7072 -3.61819,-1.5716 z"
      id="path346" transform="scale(0.26458333)" />
    <path style="fill:#492713;fill-opacity:0.99607801;stroke-width:0.331675"
      d="m 654.81025,845.35795 -11.19404,-0.0919 v -3.09287 -3.09286 l 10.99943,-0.21948 c 6.04969,-0.12071 13.65589,-0.21948 16.90266,-0.21948 h 5.90323 l 0.32964,1.24378 c 0.18131,0.68408 0.49104,1.99006 0.6883,2.90216 0.19727,0.91211 0.43787,1.91958 0.53469,2.23881 0.16406,0.54099 -0.27072,0.57511 -6.39692,0.50208 -3.61512,-0.0431 -11.61026,-0.11971 -17.76699,-0.17025 z"
      id="path347" transform="scale(0.26458333)" />
    <path style="fill:#492713;fill-opacity:0.99607801;stroke-width:0.780901"
      d="m 731.80628,1070.4196 c -5.90396,-24.6269 -45.43088,-197.66514 -49.27755,-215.72385 -1.14358,-5.36869 -2.91795,-13.09961 -3.94304,-17.17981 -4.05817,-16.15286 -45.66572,-194.8607 -45.66572,-196.13801 0,-0.35692 2.89909,-0.6463 6.44243,-0.64304 l 6.44243,0.006 48.38374,218.45104 c 26.61106,120.14808 48.52593,219.41737 48.6997,220.59857 0.31219,2.1219 0.26451,2.1474 -4.00234,2.1474 h -4.3183 z"
      id="path348" transform="scale(0.26458333)" />
    <path style="fill:#492713;fill-opacity:0.99607801;stroke-width:0.241913"
      d="m 587.96873,845.10874 c -19.49211,-0.0868 -48.58721,-0.17383 -64.65577,-0.19332 l -29.21556,-0.0354 0.12519,-0.54431 c 0.0689,-0.29936 0.33053,-1.44799 0.58149,-2.55249 0.25095,-1.10451 0.51471,-2.06661 0.58611,-2.13802 0.0714,-0.0714 22.26433,-0.22243 49.31761,-0.33561 27.05329,-0.11318 60.3188,-0.26553 73.92336,-0.33855 l 24.73557,-0.13277 v 3.26279 3.26278 l -9.9789,-0.0486 c -5.48839,-0.0267 -25.92699,-0.11963 -45.4191,-0.20647 z"
      id="path349" transform="scale(0.26458333)" />
    <path style="fill:#492713;fill-opacity:0.99607801;stroke-width:0.417"
      d="m 441.41689,1057.0868 c -1.47837,-0.7965 -2.83996,-1.6003 -3.02577,-1.7861 -0.1858,-0.1858 2.01698,-11.3048 4.89507,-24.709 9.62387,-44.82118 62.06872,-285.6205 77.315,-354.98997 2.76491,-12.58014 5.02711,-22.9478 5.02711,-23.03924 0,-0.0914 2.36596,-0.16624 5.2577,-0.16624 h 5.25771 l -0.29269,1.14675 c -1.36362,5.34271 -37.63959,168.28056 -40.64051,182.54168 -0.91696,4.35765 -2.5939,11.86364 -3.72654,16.67999 -1.13262,4.81635 -6.12322,26.95904 -11.0902,49.20598 -27.87367,124.84525 -28.90171,129.42145 -33.02189,146.99245 -1.87188,7.9828 -2.37312,9.6005 -2.96897,9.5815 -0.16395,-0.01 -1.50765,-0.6612 -2.98602,-1.4578 z"
      id="path350" transform="scale(0.26458333)" />
    <path style="fill:#472613;fill-opacity:0.996078;stroke-width:0.234818"
      d="m 525.72541,651.88523 c 0.0673,-0.27515 0.61596,-2.7193 1.21934,-5.43145 l -15.72989,-0.0471 c -5.48887,-0.0998 -2.66951,-9.93915 -2.89552,-10.03771 -2.9745,-1.29709 -0.3072,0.81278 111.95222,0.22759 13.10871,-0.0683 29.01855,-0.18651 35.35519,-0.26262 l 11.52117,-0.13837 0.6219,1.37201 0.6219,1.37201 -0.98922,4.02565 c -0.55249,2.24837 -22.81871,1.30376 -67.34572,1.54025 -26.0237,0.13822 -50.59358,0.22789 -54.33991,0.20114 l -7.0241,-0.0502 -1.1095,1.63399 c -1.81012,2.6658 -1.36214,5.7406 -1.40891,5.78148 -0.0468,0.0409 -2.44443,0.12816 -5.32814,0.19394 l -5.24311,0.1196 z"
      id="path351" transform="scale(0.26458333)" sodipodi:nodetypes="sccssscccssscssscs" />
    <path style="fill:#e9afaf;fill-opacity:0.996078;stroke-width:1.19739"
      d="m 379.57346,723.80773 c -3.9514,-0.48721 -7.9926,-1.19845 -8.98045,-1.58052 -0.98785,-0.38209 -8.26201,-1.29928 -16.1648,-2.03821 -26.66235,-2.49297 -43.77119,-6.5633 -58.31711,-13.87409 -4.74533,-2.38501 -5.78198,-3.53864 -6.58566,-7.32888 -0.5246,-2.47408 -0.95382,-24.16549 -0.95382,-48.20315 0,-40.34251 0.22061,-45.07721 2.86756,-61.54368 l 2.86756,-17.83886 16.18069,0.77601 c 8.89939,0.42681 20.97067,0.77601 26.82509,0.77601 10.06478,0 10.80996,0.17867 13.68522,3.28112 l 3.04083,3.28112 2.39013,-3.28112 2.39013,-3.28112 h 16.66362 16.66363 v 7.214 c 0,6.51539 -0.27862,7.31992 -2.87717,8.30789 -4.42703,1.68315 -4.71867,3.36211 -0.92479,5.324 2.82621,1.46149 3.61981,2.8429 4.32859,7.5347 0.47735,3.15981 1.11737,32.28232 1.42227,64.71669 l 0.55436,58.97159 -3.94576,-0.16383 c -2.17017,-0.0901 -7.17873,-0.56246 -11.13012,-1.04967 z m -21.651,-131.2265 c 1.04171,-0.39974 1.89402,-2.04874 1.89402,-3.66445 0,-2.66142 -0.4213,-2.90271 -4.48026,-2.56603 -3.13621,0.26014 -4.59973,1.00196 -4.87847,2.47277 -0.34294,1.80954 0.66229,2.63492 5.36927,4.40862 0.11078,0.0417 1.05373,-0.25116 2.09544,-0.65091 z m 18.05882,-1.66798 c 0,-2.07465 -6.25488,-3.02611 -8.8345,-1.34386 -2.7964,1.82363 -0.16907,3.89042 4.45552,3.50495 2.93194,-0.24438 4.37898,-0.95852 4.37898,-2.16109 z m -32.9283,-1.21572 c 1.59653,-1.04805 1.59653,-1.31007 0,-2.35812 -2.02509,-1.32939 -9.95969,-1.63344 -11.16527,-0.42785 -2.89997,2.89996 7.16565,5.41155 11.16527,2.78597 z m -16.13238,-1.23151 c 1.34006,-2.16827 -1.96532,-4.73712 -6.09533,-4.73712 -4.26318,0 -5.92857,1.45655 -4.85731,4.24821 0.7818,2.03734 9.74829,2.43758 10.95264,0.48891 z m -16.19722,-3.39311 c 0,-3.63391 -9.48924,-6.13396 -11.964,-3.15206 -1.40791,1.69643 -1.398,2.15131 0.0671,3.07837 2.20806,1.39719 11.89693,1.45721 11.89693,0.0737 z"
      id="path352" transform="scale(0.26458333)" />
    <path style="fill:#e3dbdb;fill-opacity:0.996078;stroke-width:0.210122" d="" id="path353"
      transform="scale(0.26458333)" />
    <path style="fill:#e3dbdb;fill-opacity:0.996078;stroke-width:0.210122"
      d="m 318.77985,588.85987 c -0.67971,-0.10731 -1.57798,-0.36243 -1.99616,-0.56693 -0.63249,-0.3093 -0.77083,-0.49659 -0.82281,-1.11393 -0.0844,-1.00251 0.65235,-2.07127 1.84221,-2.67237 2.81414,-1.42166 9.43053,0.7198 9.20954,2.98076 -0.0563,0.57575 -0.18327,0.68375 -1.20069,1.02112 -1.35038,0.44778 -5.20232,0.64024 -7.03209,0.35135 z"
      id="path354" transform="scale(0.26458333)" />
    <path style="fill:#e3dbdb;fill-opacity:0.996078;stroke-width:0.210122" d="" id="path355"
      transform="scale(0.26458333)" />
    <path style="fill:#e3dbdb;fill-opacity:0.996078;stroke-width:0.0855253"
      d="m 335.34236,590.4261 c -0.60835,-0.0863 -1.79405,-0.465 -2.16839,-0.69265 -0.14519,-0.0883 -0.43723,-0.39588 -0.64899,-0.68354 -0.78585,-1.0675 -0.69892,-1.76132 0.28278,-2.25697 1.65303,-0.83461 7.20887,-0.44893 9.62693,0.66829 0.57348,0.26496 1.08164,0.70854 1.07471,0.93812 -0.0297,0.9827 -3.02445,1.93124 -6.4969,2.05778 -0.63502,0.0231 -1.38659,0.009 -1.67014,-0.031 z"
      id="path356" transform="scale(0.26458333)" />
    <path style="fill:#e3dbdb;fill-opacity:0.996078;stroke-width:0.0855253"
      d="m 303.70039,585.97706 c -3.34719,-0.28713 -5.66703,-1.61012 -5.34295,-3.04707 0.0912,-0.40436 0.28928,-0.6696 0.83159,-1.11351 0.54993,-0.45015 1.18216,-0.686 2.15647,-0.80446 2.784,-0.33851 7.26023,1.13813 8.36547,2.75964 0.34149,0.50099 0.39657,0.7787 0.22583,1.13852 -0.1906,0.40164 -0.94898,0.76493 -1.96014,0.93896 -0.9413,0.16201 -3.11935,0.22716 -4.27627,0.12792 z"
      id="path357" transform="scale(0.26458333)" />
    <path style="fill:#e3dbdb;fill-opacity:0.996078;stroke-width:0.0855253"
      d="m 354.61481,592.12785 c -1.78447,-0.26177 -3.13774,-1.02945 -3.6066,-2.04594 -0.38931,-0.84402 -0.1402,-2.06611 0.54787,-2.68773 0.60434,-0.54599 2.23529,-0.91949 4.67747,-1.07118 1.49518,-0.0929 1.89562,-0.0218 2.51999,0.447 0.57178,0.42936 0.85166,1.07162 0.90414,2.0748 0.1041,1.99034 -0.56273,2.94697 -2.26589,3.2506 -0.72745,0.12968 -2.01184,0.14469 -2.77698,0.0324 z"
      id="path358" transform="scale(0.26458333)" />
    <path style="fill:#e3dbdb;fill-opacity:0.996078;stroke-width:0.0855253"
      d="m 353.09126,578.0264 c -0.64907,-0.34678 -1.26572,-1.23719 -1.7104,-2.46972 -0.14704,-0.40757 -0.36202,-0.9033 -0.47774,-1.10162 -0.59055,-1.01217 -2.13284,-1.52982 -5.53792,-1.85873 -3.47163,-0.33534 -8.64874,-0.50362 -22.72095,-0.73851 -3.17513,-0.053 -9.81403,-0.16388 -14.75312,-0.2464 l -8.98016,-0.15004 22.15106,-0.0327 c 12.18308,-0.018 22.42046,-0.025 22.74973,-0.0156 0.32928,0.009 10.20104,0.17381 21.93725,0.36533 11.73621,0.19151 21.69456,0.36993 22.12967,0.39648 l 0.79111,0.0483 v 0.29136 0.29135 l -0.91939,-0.002 c -0.50567,-9.5e-4 -3.9021,-0.0792 -7.54761,-0.17396 -3.64552,-0.0947 -9.14907,-0.19518 -12.23012,-0.22324 -10.10517,-0.092 -11.05146,0.1354 -11.8015,2.8364 -0.3872,1.39438 -1.06692,2.49043 -1.74356,2.81152 -0.38549,0.18292 -0.96383,0.17064 -1.33635,-0.0284 z"
      id="path359" transform="scale(0.26458333)" />
    <path style="fill:#e3dbdb;fill-opacity:0.996078;stroke-width:0.0988114"
      d="m 394.40476,623.68908 c -7.6e-4,-1.13204 -0.23198,-7.77621 -0.3453,-9.92231 -0.18801,-3.56033 -0.36702,-6.5364 -0.49928,-8.30016 -0.41675,-5.55779 -1.05039,-10.21943 -1.45985,-10.73997 -0.27233,-0.34622 -1.4119,-0.87308 -2.32274,-1.07387 -0.41649,-0.0918 -1.02405,-0.22885 -1.35013,-0.30451 -1.378,-0.31975 -2.51969,-1.16266 -2.51969,-1.8603 0,-0.81608 1.19167,-1.6026 3.01282,-1.98851 1.67306,-0.35453 2.98145,-1.38511 3.31066,-2.60772 0.15082,-0.56008 0.77244,-13.78786 0.65354,-13.90677 -0.0266,-0.0266 -0.9848,-0.0724 -2.12933,-0.10187 l -2.08097,-0.0535 v -0.34662 -0.34662 l 1.49788,0.0648 c 0.82383,0.0357 2.187,0.0648 3.02925,0.0648 h 1.53138 l -0.0651,15.73571 c -0.0891,21.54739 -0.18264,36.77433 -0.2261,36.8237 -0.0199,0.0226 -0.0366,-0.48871 -0.037,-1.13633 z"
      id="path360" transform="scale(0.26458333)" />
    <path style="fill:#e3dbdb;fill-opacity:0.996078;stroke-width:0.0988114"
      d="m 369.28871,593.01798 c -1.42501,-0.17877 -2.39977,-0.60954 -2.70207,-1.19412 -0.22067,-0.42673 -0.10828,-0.80316 0.36834,-1.23376 0.49122,-0.44379 1.13791,-0.73698 2.30308,-1.04417 0.80349,-0.21184 1.09427,-0.23448 3.01374,-0.23472 2.41033,-2.9e-4 2.57789,0.0421 3.29222,0.83277 0.84146,0.9314 0.20704,1.96898 -1.51294,2.47442 -1.19295,0.35055 -3.56597,0.54966 -4.76237,0.39958 z"
      id="path361" transform="scale(0.26458333)" />
    <path style="fill:#c88c5c;fill-opacity:0.968627;stroke-width:0.977765"
      d="m 299.83357,365.11793 c -2.45763,-16.6045 -10.13063,-34.91347 -22.79269,-54.38692 l -6.22874,-9.57941 4.41432,-10.93445 c 2.42787,-6.01395 4.71099,-11.2239 5.0736,-11.57767 1.72992,-1.68772 14.55927,20.19229 18.52569,31.59491 5.28153,15.1833 6.85727,31.69435 4.70188,49.26787 -1.74011,14.18769 -2.29946,15.03801 -3.69406,5.61567 z"
      id="path362" transform="scale(0.26458333)" />
  </g>
</svg>